# xmcd CD database file
#
# Track frame offsets:
#	150
#	12734
#	27226
#	43651
#	59905
#	72574
#	90308
#	111264
#	127076
#	142871
#	153521
#
# Disc length: 2301 seconds
#
# Revision: 2
# Processed by: cddbd v1.5.2PL0 Copyright (c) Steve Scherf et al.
# Submitted via: CDex 1.81
#
DISCID=a008fb0b
DTITLE=Joe Nichols - Revelation
DYEAR=2004
DGENRE=Country
TTITLE0=The Shade
TTITLE1=Singer In A Band
TTITLE2=Don't Ruin It For The Rest Of Us
TTITLE3=I Wish That Wasn't All
TTITLE4=If I Ever Get Her Back
TTITLE5=If Nobody Believed In You
TTITLE6=Farewell Party
TTITLE7=Things Like That (These Days)
TTITLE8=Revelation
TTITLE9=What's A Guy Gotta Do
TTITLE10=No Time To Cry
EXTD=YEAR: 2004
EXTT0=
EXTT1=
EXTT2=
EXTT3=
EXTT4=
EXTT5=
EXTT6=
EXTT7=
EXTT8=
EXTT9=
EXTT10=
PLAYORDER=
